# Blender v2.79 (sub 0) OBJ File: ''
# www.blender.org
o Cube
v 3.570902 -1.895854 0.582667
v 1.835586 -0.583303 -3.602150
v -2.387597 -2.297612 -2.388611
v -0.652280 -3.610164 1.796206
v 2.387598 2.297613 2.388610
v 0.652279 3.610164 -1.796206
v -3.570902 1.895854 -0.582666
v -1.835586 0.583303 3.602150
vn 0.2509 -0.8891 -0.3829
vn -0.2509 0.8891 0.3829
vn 0.8954 0.3635 -0.2573
vn -0.3679 0.2783 -0.8872
vn -0.8954 -0.3635 0.2573
vn 0.3679 -0.2783 0.8872
s off
f 2//1 1//1 4//1
f 8//2 5//2 6//2
f 5//3 1//3 2//3
f 6//4 2//4 3//4
f 3//5 4//5 8//5
f 1//6 5//6 8//6
f 2//1 4//1 3//1
f 8//2 6//2 7//2
f 5//3 2//3 6//3
f 6//4 3//4 7//4
f 3//5 8//5 7//5
f 1//6 8//6 4//6
